<?xml version="1.0" standalone="no"?>
<!DOCTYPE svg PUBLIC "-//W3C//DTD SVG 20010904//EN"
 "http://www.w3.org/TR/2001/REC-SVG-20010904/DTD/svg10.dtd">
<svg version="1.0" xmlns="http://www.w3.org/2000/svg"
 width="980.000000pt" height="980.000000pt" viewBox="0 0 980.000000 980.000000"
 preserveAspectRatio="xMidYMid meet">

<g transform="translate(0.000000,980.000000) scale(0.100000,-0.100000)"
fill="#000000" stroke="none">
<path d="M2952 7815 c-253 -46 -457 -156 -642 -344 -156 -160 -247 -319 -308
-538 l-27 -98 0 -1935 0 -1935 27 -98 c128 -464 493 -801 956 -882 128 -22
3739 -23 3877 0 499 81 899 481 980 980 23 138 22 3749 0 3877 -81 464 -417
827 -885 957 l-95 26 -1905 2 c-1545 1 -1919 -1 -1978 -12z m568 -1337 c295
-91 634 -387 1000 -873 117 -156 257 -367 325 -493 28 -50 52 -92 55 -92 3 0
20 29 38 64 47 91 175 293 267 421 451 630 901 995 1230 998 184 1 273 -104
282 -338 8 -176 -55 -910 -93 -1083 -26 -122 -84 -224 -183 -323 -147 -146
-320 -215 -570 -226 l-123 -6 73 -22 c220 -64 398 -188 463 -321 94 -192 23
-399 -215 -629 -182 -176 -339 -257 -499 -257 -256 0 -472 237 -632 692 -16
47 -33 88 -37 93 -4 4 -18 -26 -30 -65 -37 -115 -108 -275 -166 -373 -137
-232 -294 -347 -475 -347 -163 0 -317 81 -508 266 -172 167 -244 300 -245 451
0 58 6 95 21 133 58 149 220 273 456 350 l88 29 -123 6 c-72 3 -158 15 -204
26 -98 26 -243 96 -310 151 -97 81 -180 204 -218 325 -26 81 -60 375 -92 795
-26 345 -19 457 39 552 72 121 200 153 386 96z"/>
</g>
</svg>
