<?xml version="1.0" standalone="no"?>
<!DOCTYPE svg PUBLIC "-//W3C//DTD SVG 20010904//EN"
 "http://www.w3.org/TR/2001/REC-SVG-20010904/DTD/svg10.dtd">
<svg version="1.0" xmlns="http://www.w3.org/2000/svg"
 width="980.000000pt" height="980.000000pt" viewBox="0 0 980.000000 980.000000"
 preserveAspectRatio="xMidYMid meet">

<g transform="translate(0.000000,980.000000) scale(0.100000,-0.100000)"
fill="#000000" stroke="none">
<path d="M3120 7829 c-155 -11 -237 -25 -350 -61 -405 -129 -691 -455 -774
-883 -32 -165 -36 -382 -36 -1993 0 -1599 4 -1807 35 -1977 76 -412 362 -744
753 -875 122 -40 223 -58 400 -70 205 -13 3316 -13 3512 0 175 12 278 30 390
69 395 133 673 456 754 876 32 165 36 382 36 1993 0 1599 -4 1807 -35 1977
-76 412 -362 744 -753 875 -122 40 -223 58 -400 70 -184 12 -3359 11 -3532 -1z
m3292 -1589 c52 -15 94 -67 108 -135 10 -46 9 -81 -5 -188 -21 -171 -86 -605
-185 -1242 -43 -280 -88 -577 -100 -660 -24 -174 -51 -283 -85 -341 -47 -79
-119 -124 -202 -124 -78 0 -217 63 -344 156 -35 26 -245 168 -465 315 -424
282 -436 293 -450 377 -11 72 28 134 159 254 211 192 752 705 815 772 45 49
62 74 62 94 0 35 -17 52 -51 52 -28 0 -256 -149 -776 -508 -134 -92 -302 -208
-375 -258 -222 -152 -333 -199 -461 -192 -46 3 -161 28 -324 71 -383 101 -457
135 -457 211 0 70 45 107 235 192 609 272 2008 866 2519 1069 235 93 299 108
382 85z"/>
</g>
</svg>
